<mxfile host="app.diagrams.net" agent="Mozilla/5.0 (Windows NT 10.0; Win64; x64) AppleWebKit/537.36 (KHTML, like Gecko) Chrome/129.0.0.0 Safari/537.36" version="24.7.16">
  <diagram name="Page-1" id="iTrBEFFdwUC24tkgiDyo">
    <mxGraphModel dx="794" dy="1592" grid="1" gridSize="10" guides="1" tooltips="1" connect="1" arrows="1" fold="1" page="1" pageScale="1" pageWidth="850" pageHeight="1100" math="0" shadow="0">
      <root>
        <mxCell id="0" />
        <mxCell id="1" parent="0" />
        <mxCell id="GPBHcl9BLLnkGqx1J-Wh-2" style="edgeStyle=orthogonalEdgeStyle;rounded=0;orthogonalLoop=1;jettySize=auto;html=1;entryX=0.5;entryY=0;entryDx=0;entryDy=0;" edge="1" parent="1" source="oq0ZmQOI0R6ygVmZZQTK-1" target="GPBHcl9BLLnkGqx1J-Wh-1">
          <mxGeometry relative="1" as="geometry" />
        </mxCell>
        <mxCell id="oq0ZmQOI0R6ygVmZZQTK-1" value="Start" style="ellipse;whiteSpace=wrap;html=1;" parent="1" vertex="1">
          <mxGeometry x="340" y="-70" width="120" height="80" as="geometry" />
        </mxCell>
        <mxCell id="oq0ZmQOI0R6ygVmZZQTK-5" value="" style="edgeStyle=orthogonalEdgeStyle;rounded=0;orthogonalLoop=1;jettySize=auto;html=1;" parent="1" source="oq0ZmQOI0R6ygVmZZQTK-2" target="oq0ZmQOI0R6ygVmZZQTK-4" edge="1">
          <mxGeometry relative="1" as="geometry" />
        </mxCell>
        <mxCell id="oq0ZmQOI0R6ygVmZZQTK-2" value="Request Location Permission" style="whiteSpace=wrap;html=1;" parent="1" vertex="1">
          <mxGeometry x="340" y="170" width="120" height="60" as="geometry" />
        </mxCell>
        <mxCell id="oq0ZmQOI0R6ygVmZZQTK-7" value="TRUE" style="edgeStyle=orthogonalEdgeStyle;rounded=0;orthogonalLoop=1;jettySize=auto;html=1;" parent="1" source="oq0ZmQOI0R6ygVmZZQTK-4" target="oq0ZmQOI0R6ygVmZZQTK-14" edge="1">
          <mxGeometry relative="1" as="geometry">
            <mxPoint x="400" y="520" as="targetPoint" />
          </mxGeometry>
        </mxCell>
        <mxCell id="oq0ZmQOI0R6ygVmZZQTK-12" value="FALSE" style="edgeStyle=orthogonalEdgeStyle;rounded=0;orthogonalLoop=1;jettySize=auto;html=1;" parent="1" source="oq0ZmQOI0R6ygVmZZQTK-4" target="oq0ZmQOI0R6ygVmZZQTK-11" edge="1">
          <mxGeometry relative="1" as="geometry" />
        </mxCell>
        <mxCell id="oq0ZmQOI0R6ygVmZZQTK-4" value="Permission Granted?" style="rhombus;whiteSpace=wrap;html=1;" parent="1" vertex="1">
          <mxGeometry x="360" y="280" width="80" height="80" as="geometry" />
        </mxCell>
        <mxCell id="oq0ZmQOI0R6ygVmZZQTK-13" value="TRUE" style="edgeStyle=orthogonalEdgeStyle;rounded=0;orthogonalLoop=1;jettySize=auto;html=1;exitX=0.5;exitY=0;exitDx=0;exitDy=0;entryX=0;entryY=0.5;entryDx=0;entryDy=0;" parent="1" source="oq0ZmQOI0R6ygVmZZQTK-11" target="oq0ZmQOI0R6ygVmZZQTK-2" edge="1">
          <mxGeometry relative="1" as="geometry" />
        </mxCell>
        <mxCell id="oq0ZmQOI0R6ygVmZZQTK-30" value="FALSE" style="edgeStyle=orthogonalEdgeStyle;rounded=0;orthogonalLoop=1;jettySize=auto;html=1;" parent="1" source="oq0ZmQOI0R6ygVmZZQTK-11" target="oq0ZmQOI0R6ygVmZZQTK-29" edge="1">
          <mxGeometry relative="1" as="geometry" />
        </mxCell>
        <mxCell id="oq0ZmQOI0R6ygVmZZQTK-11" value="Can ask again?" style="rhombus;whiteSpace=wrap;html=1;" parent="1" vertex="1">
          <mxGeometry x="200" y="280" width="80" height="80" as="geometry" />
        </mxCell>
        <mxCell id="oq0ZmQOI0R6ygVmZZQTK-15" value="COARSE" style="edgeStyle=orthogonalEdgeStyle;rounded=0;orthogonalLoop=1;jettySize=auto;html=1;entryX=1;entryY=0.5;entryDx=0;entryDy=0;" parent="1" source="oq0ZmQOI0R6ygVmZZQTK-14" target="oq0ZmQOI0R6ygVmZZQTK-2" edge="1">
          <mxGeometry relative="1" as="geometry">
            <Array as="points">
              <mxPoint x="520" y="480" />
              <mxPoint x="520" y="200" />
            </Array>
          </mxGeometry>
        </mxCell>
        <mxCell id="oq0ZmQOI0R6ygVmZZQTK-19" value="FINE" style="edgeStyle=orthogonalEdgeStyle;rounded=0;orthogonalLoop=1;jettySize=auto;html=1;" parent="1" source="oq0ZmQOI0R6ygVmZZQTK-14" target="oq0ZmQOI0R6ygVmZZQTK-18" edge="1">
          <mxGeometry relative="1" as="geometry" />
        </mxCell>
        <mxCell id="oq0ZmQOI0R6ygVmZZQTK-14" value="Location Accuracy?" style="rhombus;whiteSpace=wrap;html=1;" parent="1" vertex="1">
          <mxGeometry x="360" y="440" width="80" height="80" as="geometry" />
        </mxCell>
        <mxCell id="oq0ZmQOI0R6ygVmZZQTK-23" value="" style="edgeStyle=orthogonalEdgeStyle;rounded=0;orthogonalLoop=1;jettySize=auto;html=1;" parent="1" source="oq0ZmQOI0R6ygVmZZQTK-18" target="oq0ZmQOI0R6ygVmZZQTK-22" edge="1">
          <mxGeometry relative="1" as="geometry" />
        </mxCell>
        <mxCell id="oq0ZmQOI0R6ygVmZZQTK-18" value="Get Location" style="whiteSpace=wrap;html=1;" parent="1" vertex="1">
          <mxGeometry x="340" y="600" width="120" height="60" as="geometry" />
        </mxCell>
        <mxCell id="oq0ZmQOI0R6ygVmZZQTK-25" value="FALSE" style="edgeStyle=orthogonalEdgeStyle;rounded=0;orthogonalLoop=1;jettySize=auto;html=1;" parent="1" source="oq0ZmQOI0R6ygVmZZQTK-22" target="oq0ZmQOI0R6ygVmZZQTK-24" edge="1">
          <mxGeometry relative="1" as="geometry" />
        </mxCell>
        <mxCell id="oq0ZmQOI0R6ygVmZZQTK-27" value="TRUE" style="edgeStyle=orthogonalEdgeStyle;rounded=0;orthogonalLoop=1;jettySize=auto;html=1;" parent="1" source="oq0ZmQOI0R6ygVmZZQTK-22" target="oq0ZmQOI0R6ygVmZZQTK-26" edge="1">
          <mxGeometry relative="1" as="geometry" />
        </mxCell>
        <mxCell id="oq0ZmQOI0R6ygVmZZQTK-22" value="Inside Geofence?" style="rhombus;whiteSpace=wrap;html=1;" parent="1" vertex="1">
          <mxGeometry x="360" y="720" width="80" height="80" as="geometry" />
        </mxCell>
        <mxCell id="oq0ZmQOI0R6ygVmZZQTK-24" value="&quot;Not inside VIT&quot;" style="shape=parallelogram;perimeter=parallelogramPerimeter;whiteSpace=wrap;html=1;fixedSize=1;" parent="1" vertex="1">
          <mxGeometry x="160" y="730" width="120" height="60" as="geometry" />
        </mxCell>
        <mxCell id="oq0ZmQOI0R6ygVmZZQTK-32" value="" style="edgeStyle=orthogonalEdgeStyle;rounded=0;orthogonalLoop=1;jettySize=auto;html=1;" parent="1" source="oq0ZmQOI0R6ygVmZZQTK-26" target="oq0ZmQOI0R6ygVmZZQTK-31" edge="1">
          <mxGeometry relative="1" as="geometry" />
        </mxCell>
        <mxCell id="oq0ZmQOI0R6ygVmZZQTK-26" value="Request Camera Permission" style="whiteSpace=wrap;html=1;" parent="1" vertex="1">
          <mxGeometry x="340" y="880" width="120" height="60" as="geometry" />
        </mxCell>
        <mxCell id="oq0ZmQOI0R6ygVmZZQTK-29" value="&quot;Location permission denied. Go to settings and allow precise location access to continue.&quot;" style="shape=parallelogram;perimeter=parallelogramPerimeter;whiteSpace=wrap;html=1;fixedSize=1;" parent="1" vertex="1">
          <mxGeometry x="60" y="430" width="220" height="60" as="geometry" />
        </mxCell>
        <mxCell id="oq0ZmQOI0R6ygVmZZQTK-36" value="TRUE" style="edgeStyle=orthogonalEdgeStyle;rounded=0;orthogonalLoop=1;jettySize=auto;html=1;" parent="1" source="oq0ZmQOI0R6ygVmZZQTK-31" target="oq0ZmQOI0R6ygVmZZQTK-35" edge="1">
          <mxGeometry relative="1" as="geometry" />
        </mxCell>
        <mxCell id="oq0ZmQOI0R6ygVmZZQTK-38" value="FALSE" style="edgeStyle=orthogonalEdgeStyle;rounded=0;orthogonalLoop=1;jettySize=auto;html=1;" parent="1" source="oq0ZmQOI0R6ygVmZZQTK-31" target="oq0ZmQOI0R6ygVmZZQTK-37" edge="1">
          <mxGeometry relative="1" as="geometry" />
        </mxCell>
        <mxCell id="oq0ZmQOI0R6ygVmZZQTK-31" value="Permission Granted?" style="rhombus;whiteSpace=wrap;html=1;" parent="1" vertex="1">
          <mxGeometry x="360" y="1010" width="80" height="80" as="geometry" />
        </mxCell>
        <mxCell id="oq0ZmQOI0R6ygVmZZQTK-43" value="" style="edgeStyle=orthogonalEdgeStyle;rounded=0;orthogonalLoop=1;jettySize=auto;html=1;" parent="1" source="oq0ZmQOI0R6ygVmZZQTK-35" target="oq0ZmQOI0R6ygVmZZQTK-42" edge="1">
          <mxGeometry relative="1" as="geometry" />
        </mxCell>
        <mxCell id="oq0ZmQOI0R6ygVmZZQTK-35" value="Open Camera,&lt;div&gt;Check Face&lt;/div&gt;" style="whiteSpace=wrap;html=1;" parent="1" vertex="1">
          <mxGeometry x="340" y="1160" width="120" height="60" as="geometry" />
        </mxCell>
        <mxCell id="oq0ZmQOI0R6ygVmZZQTK-39" value="TRUE" style="edgeStyle=orthogonalEdgeStyle;rounded=0;orthogonalLoop=1;jettySize=auto;html=1;entryX=0;entryY=0.5;entryDx=0;entryDy=0;" parent="1" source="oq0ZmQOI0R6ygVmZZQTK-37" target="oq0ZmQOI0R6ygVmZZQTK-26" edge="1">
          <mxGeometry relative="1" as="geometry">
            <Array as="points">
              <mxPoint x="240" y="910" />
            </Array>
          </mxGeometry>
        </mxCell>
        <mxCell id="oq0ZmQOI0R6ygVmZZQTK-41" value="FALSE" style="edgeStyle=orthogonalEdgeStyle;rounded=0;orthogonalLoop=1;jettySize=auto;html=1;entryX=0.5;entryY=0;entryDx=0;entryDy=0;" parent="1" source="oq0ZmQOI0R6ygVmZZQTK-37" target="oq0ZmQOI0R6ygVmZZQTK-40" edge="1">
          <mxGeometry relative="1" as="geometry" />
        </mxCell>
        <mxCell id="oq0ZmQOI0R6ygVmZZQTK-37" value="Can ask again?" style="rhombus;whiteSpace=wrap;html=1;" parent="1" vertex="1">
          <mxGeometry x="200" y="1010" width="80" height="80" as="geometry" />
        </mxCell>
        <mxCell id="oq0ZmQOI0R6ygVmZZQTK-40" value="&quot;Camera permission denied. Go to settings and allow camera access to continue.&quot;" style="shape=parallelogram;perimeter=parallelogramPerimeter;whiteSpace=wrap;html=1;fixedSize=1;" parent="1" vertex="1">
          <mxGeometry x="60" y="1160" width="220" height="60" as="geometry" />
        </mxCell>
        <mxCell id="GPBHcl9BLLnkGqx1J-Wh-6" value="TRUE" style="edgeStyle=orthogonalEdgeStyle;rounded=0;orthogonalLoop=1;jettySize=auto;html=1;" edge="1" parent="1" source="oq0ZmQOI0R6ygVmZZQTK-42" target="GPBHcl9BLLnkGqx1J-Wh-5">
          <mxGeometry relative="1" as="geometry" />
        </mxCell>
        <mxCell id="oq0ZmQOI0R6ygVmZZQTK-42" value="Face match?" style="rhombus;whiteSpace=wrap;html=1;" parent="1" vertex="1">
          <mxGeometry x="360" y="1290" width="80" height="80" as="geometry" />
        </mxCell>
        <mxCell id="oq0ZmQOI0R6ygVmZZQTK-49" style="edgeStyle=orthogonalEdgeStyle;rounded=0;orthogonalLoop=1;jettySize=auto;html=1;entryX=0.5;entryY=0;entryDx=0;entryDy=0;" parent="1" source="oq0ZmQOI0R6ygVmZZQTK-44" target="oq0ZmQOI0R6ygVmZZQTK-48" edge="1">
          <mxGeometry relative="1" as="geometry" />
        </mxCell>
        <mxCell id="oq0ZmQOI0R6ygVmZZQTK-44" value="MARKED" style="shape=parallelogram;perimeter=parallelogramPerimeter;whiteSpace=wrap;html=1;fixedSize=1;" parent="1" vertex="1">
          <mxGeometry x="330" y="1550" width="120" height="60" as="geometry" />
        </mxCell>
        <mxCell id="oq0ZmQOI0R6ygVmZZQTK-48" value="STOP" style="ellipse;whiteSpace=wrap;html=1;" parent="1" vertex="1">
          <mxGeometry x="330" y="1660" width="120" height="80" as="geometry" />
        </mxCell>
        <mxCell id="GPBHcl9BLLnkGqx1J-Wh-3" value="NO" style="edgeStyle=orthogonalEdgeStyle;rounded=0;orthogonalLoop=1;jettySize=auto;html=1;" edge="1" parent="1" source="GPBHcl9BLLnkGqx1J-Wh-1" target="oq0ZmQOI0R6ygVmZZQTK-2">
          <mxGeometry relative="1" as="geometry" />
        </mxCell>
        <mxCell id="GPBHcl9BLLnkGqx1J-Wh-4" value="YES" style="edgeStyle=orthogonalEdgeStyle;rounded=0;orthogonalLoop=1;jettySize=auto;html=1;entryX=0;entryY=0.5;entryDx=0;entryDy=0;" edge="1" parent="1" source="GPBHcl9BLLnkGqx1J-Wh-1" target="oq0ZmQOI0R6ygVmZZQTK-44">
          <mxGeometry relative="1" as="geometry">
            <Array as="points">
              <mxPoint x="40" y="80" />
              <mxPoint x="40" y="1580" />
            </Array>
          </mxGeometry>
        </mxCell>
        <mxCell id="GPBHcl9BLLnkGqx1J-Wh-1" value="Attendance marked?" style="rhombus;whiteSpace=wrap;html=1;" vertex="1" parent="1">
          <mxGeometry x="360" y="40" width="80" height="80" as="geometry" />
        </mxCell>
        <mxCell id="GPBHcl9BLLnkGqx1J-Wh-7" style="edgeStyle=orthogonalEdgeStyle;rounded=0;orthogonalLoop=1;jettySize=auto;html=1;entryX=1;entryY=0.5;entryDx=0;entryDy=0;" edge="1" parent="1" source="GPBHcl9BLLnkGqx1J-Wh-5" target="GPBHcl9BLLnkGqx1J-Wh-1">
          <mxGeometry relative="1" as="geometry">
            <Array as="points">
              <mxPoint x="600" y="1470" />
              <mxPoint x="600" y="80" />
            </Array>
          </mxGeometry>
        </mxCell>
        <mxCell id="GPBHcl9BLLnkGqx1J-Wh-5" value="Mark Attendance" style="rounded=0;whiteSpace=wrap;html=1;" vertex="1" parent="1">
          <mxGeometry x="340" y="1440" width="120" height="60" as="geometry" />
        </mxCell>
      </root>
    </mxGraphModel>
  </diagram>
</mxfile>
